#Comment line ignore any data following # character 
#Hierarchical Translation and Rotation (.htr) file 
[Header]	
#Header keywords are followed by a single value 
FileType HTR		#Single word string
DataType HTRS		#Translation followed by rotation and scale data
FileVersion 1		#integer
NumSegments 64		#integer
NumFrames 3		#integer
DataFrameRate 30		#integer, data frame rate in this file
EulerRotationOrder ZYX
CalibrationUnits mm
RotationUnits Degrees
GlobalAxisofGravity Y
BoneLengthAxis Y
ScaleFactor 1.00
[SegmentNames&Hierarchy]
#CHILD	PARENT
Pinger_Root GLOBAL
Pelvis Pinger_Root
L_Hip Pelvis
R_Hip Pelvis
Rear_Leg01 Pelvis
Spine1 Pelvis
L_Leg01 L_Hip
L_Leg02 L_Leg01
L_Leg03 L_Leg02
L_Foot L_Leg03
L_Toe1_01 L_Foot
L_Toe2_01 L_Foot
L_Toe3_01 L_Foot
planeAlignerLeft L_Foot
L_Toe1_02 L_Toe1_01
L_Toe1_03 L_Toe1_02
L_Toe2_02 L_Toe2_01
L_Toe2_03 L_Toe2_02
L_Toe3_02 L_Toe3_01
L_Toe3_03 L_Toe3_02
planeLockWeightLeft planeAlignerLeft
R_Leg01 R_Hip
R_Leg02 R_Leg01
R_Leg03 R_Leg02
R_Foot R_Leg03
planeAlignerRight R_Foot
R_Toe1_01 R_Foot
R_Toe2_01 R_Foot
R_Toe3_01 R_Foot
planeLockWeightRight planeAlignerRight
R_Toe1_02 R_Toe1_01
R_Toe1_03 R_Toe1_02
R_Toe2_02 R_Toe2_01
R_Toe2_03 R_Toe2_02
R_Toe3_02 R_Toe3_01
R_Toe3_03 R_Toe3_02
Rear_Leg02 Rear_Leg01
Rear_Leg03 Rear_Leg02
Rear_Leg04 Rear_Leg03
Rear_Foot Rear_Leg04
planeAlignerCenter Rear_Foot
Rear_Toe1_01 Rear_Foot
Rear_Toe2_01 Rear_Foot
Rear_Toe3_01 Rear_Foot
planeLockWeightCenter planeAlignerCenter
Rear_Toe1_02 Rear_Toe1_01
Rear_Toe1_03 Rear_Toe1_02
Rear_Toe2_02 Rear_Toe2_01
Rear_Toe2_03 Rear_Toe2_02
Rear_Toe3_02 Rear_Toe3_01
Rear_Toe3_03 Rear_Toe3_02
Back_Bone Spine1
Head Spine1
Motor_Bone Back_Bone
Ping_Mechanism Back_Bone
BN_LookIK Head
bottomMouth Head
L_Mouth01 Head
L_mouthFront Head
mouthGun Head
R_Mouth01 Head
R_mouthFront Head
TopMouth Head
weapon_bone Head
[BasePosition]
#SegmentName Tx, Ty, Tz, Rx, Ry, Rz, BoneLength
Pinger_Root 0.000000 0.000000 0.000000 -90.000000 0.000000 0.000000 10.000000 
Pelvis 0.000000 0.000000 0.000000 0.000000 0.000000 0.000000 10.000000 
L_Hip 0.000000 0.000000 0.000000 0.000000 0.000000 0.000000 10.000000 
R_Hip 0.000000 0.000000 0.000000 0.000000 0.000000 0.000000 10.000000 
Rear_Leg01 0.000000 0.000000 0.000000 0.000000 0.000000 0.000000 10.000000 
Spine1 0.000000 0.000000 0.000000 0.000000 0.000000 0.000000 10.000000 
L_Leg01 0.000000 0.000000 0.000000 0.000000 0.000000 0.000000 10.000000 
L_Leg02 0.000000 0.000000 0.000000 0.000000 0.000000 0.000000 10.000000 
L_Leg03 0.000000 0.000000 0.000000 0.000000 0.000000 0.000000 10.000000 
L_Foot 0.000000 0.000000 0.000000 0.000000 0.000000 0.000000 10.000000 
L_Toe1_01 0.000000 0.000000 0.000000 0.000000 0.000000 0.000000 10.000000 
L_Toe2_01 0.000000 0.000000 0.000000 0.000000 0.000000 0.000000 10.000000 
L_Toe3_01 0.000000 0.000000 0.000000 0.000000 0.000000 0.000000 10.000000 
planeAlignerLeft 0.000000 0.000000 0.000000 0.000000 0.000000 0.000000 10.000000 
L_Toe1_02 0.000000 0.000000 0.000000 0.000000 0.000000 0.000000 10.000000 
L_Toe1_03 0.000000 0.000000 0.000000 0.000000 0.000000 0.000000 10.000000 
L_Toe2_02 0.000000 0.000000 0.000000 0.000000 0.000000 0.000000 10.000000 
L_Toe2_03 0.000000 0.000000 0.000000 0.000000 0.000000 0.000000 10.000000 
L_Toe3_02 0.000000 0.000000 0.000000 0.000000 0.000000 0.000000 10.000000 
L_Toe3_03 0.000000 0.000000 0.000000 0.000000 0.000000 0.000000 10.000000 
planeLockWeightLeft 0.000000 0.000000 0.000000 0.000000 0.000000 0.000000 10.000000 
R_Leg01 0.000000 0.000000 0.000000 0.000000 0.000000 0.000000 10.000000 
R_Leg02 0.000000 0.000000 0.000000 0.000000 0.000000 0.000000 10.000000 
R_Leg03 0.000000 0.000000 0.000000 0.000000 0.000000 0.000000 10.000000 
R_Foot 0.000000 0.000000 0.000000 0.000000 0.000000 0.000000 10.000000 
planeAlignerRight 0.000000 0.000000 0.000000 0.000000 0.000000 0.000000 10.000000 
R_Toe1_01 0.000000 0.000000 0.000000 0.000000 0.000000 0.000000 10.000000 
R_Toe2_01 0.000000 0.000000 0.000000 0.000000 0.000000 0.000000 10.000000 
R_Toe3_01 0.000000 0.000000 0.000000 0.000000 0.000000 0.000000 10.000000 
planeLockWeightRight 0.000000 0.000000 0.000000 0.000000 0.000000 0.000000 10.000000 
R_Toe1_02 0.000000 0.000000 0.000000 0.000000 0.000000 0.000000 10.000000 
R_Toe1_03 0.000000 0.000000 0.000000 0.000000 0.000000 0.000000 10.000000 
R_Toe2_02 0.000000 0.000000 0.000000 0.000000 0.000000 0.000000 10.000000 
R_Toe2_03 0.000000 0.000000 0.000000 0.000000 0.000000 0.000000 10.000000 
R_Toe3_02 0.000000 0.000000 0.000000 0.000000 0.000000 0.000000 10.000000 
R_Toe3_03 0.000000 0.000000 0.000000 0.000000 0.000000 0.000000 10.000000 
Rear_Leg02 0.000000 0.000000 0.000000 0.000000 0.000000 0.000000 10.000000 
Rear_Leg03 0.000000 0.000000 0.000000 0.000000 0.000000 0.000000 10.000000 
Rear_Leg04 0.000000 0.000000 0.000000 0.000000 0.000000 0.000000 10.000000 
Rear_Foot 0.000000 0.000000 0.000000 0.000000 0.000000 0.000000 10.000000 
planeAlignerCenter 0.000000 0.000000 0.000000 0.000000 0.000000 0.000000 10.000000 
Rear_Toe1_01 0.000000 0.000000 0.000000 0.000000 0.000000 0.000000 10.000000 
Rear_Toe2_01 0.000000 0.000000 0.000000 0.000000 0.000000 0.000000 10.000000 
Rear_Toe3_01 0.000000 0.000000 0.000000 0.000000 0.000000 0.000000 10.000000 
planeLockWeightCenter 0.000000 0.000000 0.000000 0.000000 0.000000 0.000000 10.000000 
Rear_Toe1_02 0.000000 0.000000 0.000000 0.000000 0.000000 0.000000 10.000000 
Rear_Toe1_03 0.000000 0.000000 0.000000 0.000000 0.000000 0.000000 10.000000 
Rear_Toe2_02 0.000000 0.000000 0.000000 0.000000 0.000000 0.000000 10.000000 
Rear_Toe2_03 0.000000 0.000000 0.000000 0.000000 0.000000 0.000000 10.000000 
Rear_Toe3_02 0.000000 0.000000 0.000000 0.000000 0.000000 0.000000 10.000000 
Rear_Toe3_03 0.000000 0.000000 0.000000 0.000000 0.000000 0.000000 10.000000 
Back_Bone 0.000000 0.000000 0.000000 0.000000 0.000000 0.000000 10.000000 
Head 0.000000 0.000000 0.000000 0.000000 0.000000 0.000000 10.000000 
Motor_Bone 0.000000 0.000000 0.000000 0.000000 0.000000 0.000000 10.000000 
Ping_Mechanism 0.000000 0.000000 0.000000 0.000000 0.000000 0.000000 10.000000 
BN_LookIK 0.000000 0.000000 0.000000 0.000000 0.000000 0.000000 10.000000 
bottomMouth 0.000000 0.000000 0.000000 0.000000 0.000000 0.000000 10.000000 
L_Mouth01 0.000000 0.000000 0.000000 0.000000 0.000000 0.000000 10.000000 
L_mouthFront 0.000000 0.000000 0.000000 0.000000 0.000000 0.000000 10.000000 
mouthGun 0.000000 0.000000 0.000000 0.000000 0.000000 0.000000 10.000000 
R_Mouth01 0.000000 0.000000 0.000000 0.000000 0.000000 0.000000 10.000000 
R_mouthFront 0.000000 0.000000 0.000000 0.000000 0.000000 0.000000 10.000000 
TopMouth 0.000000 0.000000 0.000000 0.000000 0.000000 0.000000 10.000000 
weapon_bone 0.000000 0.000000 0.000000 0.000000 0.000000 0.000000 10.000000 
#Beginning of Data. Separated by tabs
#Fr	Tx	Ty	Tz	Rx	Ry	Rz	SF
[Pinger_Root]
49 0.000000 -6222.220215 0.000000 -0.000075 -0.000000 -0.000020 6222.220703
50 0.000000 -6351.849609 0.000000 -0.000075 -0.000000 -0.000020 6351.849609
51 0.000000 -6481.478516 0.000000 -0.000075 -0.000000 -0.000020 6481.479004
[Pelvis]
49 529.742676 287.285919 4881.560059 40.125885 -77.280197 -38.027504 4918.616699
50 501.452026 309.332428 4883.513184 44.828156 -78.636177 -40.762333 4918.926758
51 461.697815 329.815948 4889.767578 47.432507 -79.521240 -41.915646 4922.577637
[L_Hip]
49 5.766392 125.831482 872.656799 -178.250168 -81.786369 87.376007 881.701050
50 5.766392 125.831482 872.656799 -178.250168 -81.786369 87.376007 881.701050
51 5.766392 125.831482 872.656799 -178.250168 -81.786369 87.376007 881.701050
[R_Hip]
49 5.765438 125.836372 -872.654907 -1.748770 81.786041 87.376961 881.699829
50 5.765438 125.836372 -872.654907 -1.748770 81.786041 87.376961 881.699829
51 5.765438 125.836372 -872.654907 -1.748770 81.786041 87.376961 881.699829
[Rear_Leg01]
49 -192.298416 -925.602966 -0.001907 -177.905396 3.196783 -172.242706 945.367432
50 -192.298416 -925.602966 -0.001907 -175.541107 0.936422 -167.218582 945.367432
51 -192.298416 -925.602966 -0.001907 -174.176300 -1.105412 -157.336960 945.367432
[Spine1]
49 290.604584 5.007505 0.000477 -6.061953 -8.390840 26.412109 290.647736
50 290.604584 5.007505 0.000477 -6.924827 -6.189368 26.294857 290.647736
51 290.604584 5.007505 0.000477 -7.599646 -4.780828 26.191299 290.647736
[L_Leg01]
49 761.932007 -0.002384 -0.069261 71.988548 20.335934 -82.706352 761.932068
50 761.932007 -0.002384 -0.069261 75.377747 19.073446 -81.370277 761.932068
51 761.932007 -0.002384 -0.069261 78.475662 15.965668 -80.379677 761.932068
[L_Leg02]
49 1441.140503 -0.000954 -0.000715 -1.442808 0.674710 -66.709320 1441.140503
50 1441.140503 -0.000954 -0.000715 -1.484583 0.614693 -68.291199 1441.140503
51 1441.140503 -0.000954 -0.000715 -1.511404 0.580969 -71.800087 1441.140503
[L_Leg03]
49 1686.963989 -0.000715 -0.000954 0.083038 -0.012678 88.180962 1686.963989
50 1686.963989 -0.000715 -0.000954 0.068604 -0.011668 91.964813 1686.963989
51 1686.963989 -0.000715 -0.000954 0.061351 -0.012859 94.408829 1686.963989
[L_Foot]
49 3041.570068 -30.715107 11.297464 -23.118662 9.828486 70.101387 3041.746094
50 3041.570068 -30.715107 11.297464 -22.323448 11.347379 67.675674 3041.746094
51 3041.570068 -30.715107 11.297464 -21.467119 12.877655 66.534943 3041.746094
[L_Toe1_01]
49 -188.216690 -224.732346 -21.137953 89.193130 -0.506438 -160.381485 293.899567
50 -188.216690 -224.732346 -21.137953 89.205383 -0.706436 -160.837662 293.899567
51 -188.216690 -224.732346 -21.137953 89.290794 -1.338514 -162.016937 293.899567
[L_Toe2_01]
49 200.746536 -219.926590 148.838394 -78.432335 -14.137962 -41.680050 332.896027
50 200.746536 -219.926590 148.838394 -78.335396 -14.202177 -41.975266 332.896027
51 200.746536 -219.926590 148.838394 -78.238052 -14.265880 -42.270695 332.896027
[L_Toe3_01]
49 188.832520 -219.859131 -191.078659 -106.078789 21.001497 -44.939529 347.140900
50 188.832520 -219.859131 -191.078659 -106.012360 20.507971 -44.898560 347.140900
51 188.832520 -219.859131 -191.078659 -105.810135 19.125618 -44.847546 347.140900
[planeAlignerLeft]
49 -126.955002 -599.544434 -25.095764 0.000000 -90.000000 -90.001900 613.352112
50 -118.463295 -600.039063 -21.214064 0.000000 -90.000000 -90.001900 611.988953
51 -97.227570 -601.286682 -11.510805 0.000000 -90.000000 -90.001900 609.205566
[L_Toe1_02]
49 413.761139 0.000477 0.000000 0.001387 -25.607019 0.001387 413.761139
50 413.761139 0.000477 0.000000 0.001389 -25.282644 0.001389 413.761139
51 413.761139 0.000477 0.000000 0.001392 -24.958258 0.001392 413.761139
[L_Toe1_03]
49 464.317322 0.000358 -0.000089 0.004796 61.670918 0.004796 464.317322
50 464.317322 0.000358 -0.000089 0.005104 63.412487 0.005104 464.317322
51 464.317322 0.000358 -0.000089 0.006014 67.492607 0.006014 464.317322
[L_Toe2_02]
49 342.235809 -0.000477 0.000238 0.004686 -80.616463 0.004686 342.235809
50 342.235809 -0.000477 0.000238 0.004687 -80.376984 0.004687 342.235809
51 342.235809 -0.000477 0.000238 0.004688 -80.137352 0.004688 342.235809
[L_Toe2_03]
49 420.210846 -0.000715 0.000000 179.991943 59.238224 179.999207 420.210846
50 420.210846 -0.000715 0.000000 -179.999557 60.465000 -179.995941 420.210846
51 420.210846 -0.000715 0.000000 -179.999283 63.586960 -179.995697 420.210846
[L_Toe3_02]
49 329.270111 0.000954 0.000000 0.004677 -83.740036 0.004677 329.270111
50 329.270111 0.000954 0.000000 0.003510 -83.492859 0.003510 329.270111
51 329.270111 0.000954 0.000000 0.002343 -83.245583 0.002343 329.270111
[L_Toe3_03]
49 439.137451 -0.001907 0.000954 179.991684 61.072819 179.998917 439.137451
50 439.137451 -0.001907 0.000954 179.991577 61.826401 179.998795 439.137451
51 439.137451 -0.001907 0.000954 179.991241 63.773273 179.998428 439.137451
[planeLockWeightLeft]
49 999.999329 0.098267 0.076194 -0.011826 -0.004376 0.005620 999.999329
50 999.999329 0.098267 0.076198 -0.011826 -0.004376 0.005620 999.999329
51 999.999329 0.098267 0.076202 -0.011826 -0.004376 0.005620 999.999329
[R_Leg01]
49 761.455627 -0.001907 -0.000358 121.279381 -40.594685 52.431347 761.455688
50 761.455627 -0.001907 -0.000358 120.846756 -40.619282 53.770321 761.455688
51 761.455627 -0.001907 -0.000358 119.935608 -40.961105 54.619560 761.455688
[R_Leg02]
49 1441.140625 0.000000 -0.000238 -0.287662 0.005626 -137.872681 1441.140625
50 1441.140625 0.000000 -0.000238 -0.203026 -0.002783 -134.679184 1441.140625
51 1441.140625 0.000000 -0.000238 -0.133277 -0.023533 -131.861496 1441.140625
[R_Leg03]
49 1686.963989 0.000954 0.001431 -0.014522 0.005518 105.595207 1686.963989
50 1686.963989 0.000954 0.001431 -0.023086 0.008062 103.711723 1686.963989
51 1686.963989 0.000954 0.001431 -0.031730 0.010322 101.828209 1686.963989
[R_Foot]
49 3041.560059 -30.531288 -11.204481 3.058130 -10.432150 63.821022 3041.734131
50 3041.560059 -30.531288 -11.204481 3.725020 -12.584927 62.672409 3041.734131
51 3041.560059 -30.531288 -11.204481 4.815783 -14.944686 61.312744 3041.734131
[planeAlignerRight]
49 -0.848999 -758.286621 -0.343628 0.000000 -89.960434 -90.005180 758.287109
50 -0.845642 -737.377197 -0.337372 0.000000 -89.960434 -90.005180 737.377747
51 -0.842285 -716.467590 -0.331116 0.000000 -89.960434 -90.005180 716.468201
[R_Toe1_01]
49 -188.383347 -224.864899 21.052242 90.907814 1.896289 -153.948517 294.101532
50 -188.383347 -224.864899 21.052242 90.853752 1.922824 -155.616455 294.101532
51 -188.383347 -224.864899 21.052242 90.798943 1.947763 -157.283722 294.101532
[R_Toe2_01]
49 200.637817 -220.002121 -148.787384 -104.154190 10.174134 -55.077282 332.857574
50 200.637817 -220.002121 -148.787384 -103.900307 10.516591 -53.690231 332.857574
51 200.637817 -220.002121 -148.787384 -103.637787 10.852896 -52.300098 332.857574
[R_Toe3_01]
49 188.606735 -220.092957 191.126343 -71.613754 -12.460249 -56.981918 347.192566
50 188.606735 -220.092957 191.126343 -71.922707 -12.908099 -55.590179 347.192566
51 188.606735 -220.092957 191.126343 -72.243309 -13.348487 -54.193466 347.192566
[planeLockWeightRight]
49 999.999878 -0.000673 0.076009 -0.011823 -0.004379 -0.000027 999.999878
50 999.999878 -0.000663 0.076006 -0.011823 -0.004379 -0.000027 999.999878
51 999.999878 -0.000652 0.076003 -0.011823 -0.004379 -0.000027 999.999878
[R_Toe1_02]
49 413.762085 0.000477 -0.000119 0.001395 -24.593676 0.001395 413.762085
50 413.762085 0.000477 -0.000119 0.001397 -24.285261 0.001397 413.762085
51 413.762085 0.000477 -0.000119 0.001400 -23.976854 0.001400 413.762085
[R_Toe1_03]
49 464.317810 0.000000 0.001088 0.006751 69.963844 0.006751 464.317810
50 464.317810 0.000000 0.001088 0.007534 72.067078 0.007534 464.317810
51 464.317810 0.000000 0.001088 0.008522 74.168961 0.008522 464.317810
[R_Toe2_02]
49 342.234741 -0.000954 0.000238 0.001187 -72.819321 0.001187 342.234741
50 342.234741 -0.000954 0.000238 0.000008 -73.572517 0.000008 342.234741
51 342.234741 -0.000954 0.000238 -0.001168 -74.325706 -0.001168 342.234741
[R_Toe2_03]
49 420.210846 0.000715 -0.000268 0.040278 86.660522 0.040278 420.210846
50 420.210846 0.000715 -0.000268 0.038119 89.078041 0.036370 420.210846
51 420.210846 0.000715 -0.000268 -179.954239 88.503410 -179.957748 420.210846
[R_Toe3_02]
49 329.270355 -0.000477 -0.000954 0.001181 -76.954498 0.001181 329.270355
50 329.270355 -0.000477 -0.000954 0.001180 -77.723686 0.001180 329.270355
51 329.270355 -0.000477 -0.000954 0.001180 -78.492821 0.001180 329.270355
[R_Toe3_03]
49 439.137939 0.000238 0.001431 0.000000 89.905128 0.003496 439.137939
50 439.137939 0.000238 0.001431 -179.970978 87.858894 -179.967484 439.137939
51 439.137939 0.000238 0.001431 -179.986694 85.624718 -179.983185 439.137939
[Rear_Leg02]
49 1162.777710 -0.029802 0.005960 26.612127 -0.462336 -152.884628 1162.777710
50 1162.777710 -0.029802 0.005960 28.331779 3.132617 -152.822418 1162.777710
51 1162.777710 -0.029802 0.005960 28.383797 9.375329 -157.882507 1162.777710
[Rear_Leg03]
49 607.192505 -0.013351 -0.073195 0.009841 -0.006270 81.355728 607.192505
50 607.192505 -0.013351 -0.073195 0.009852 -0.006252 81.147217 607.192505
51 607.192505 -0.013351 -0.073195 0.002991 -0.006743 79.265648 607.192505
[Rear_Leg04]
49 995.874512 -0.020504 -0.011921 -0.043366 -0.011372 116.430328 995.874573
50 995.874512 -0.020504 -0.011921 -0.039552 -0.006797 122.167786 995.874573
51 995.874512 -0.020504 -0.011921 -0.037999 -0.007800 132.301453 995.874573
[Rear_Foot]
49 3096.176270 -0.067472 -0.041425 -81.805672 63.051704 82.053047 3096.176270
50 3096.176270 -0.067472 -0.041425 -82.171036 61.195183 84.858383 3096.176270
51 3096.176270 -0.067472 -0.041425 -86.791641 60.304745 88.175247 3096.176270
[planeAlignerCenter]
49 16.395636 62.718948 -765.328979 0.000009 0.000003 -179.999985 768.069641
50 17.570015 68.441353 -767.138000 0.000009 0.000003 -179.999985 770.385376
51 17.228704 90.185738 -766.717224 0.000009 0.000003 -179.999985 772.195313
[Rear_Toe1_01]
49 0.653352 83.966492 -371.173737 0.233210 53.059418 90.211334 380.553192
50 0.653352 83.966492 -371.173737 0.094120 57.261837 90.043427 380.553192
51 0.653352 83.966492 -371.173737 0.091012 54.475231 90.041763 380.553192
[Rear_Toe2_01]
49 178.200760 -294.826019 -362.060547 1.512346 50.302624 -69.014854 499.765686
50 178.200760 -294.826019 -362.060547 1.668781 50.333630 -68.745827 499.765686
51 178.200760 -294.826019 -362.060547 2.675079 53.702492 -67.533684 499.765686
[Rear_Toe3_01]
49 -153.359680 -308.780914 -362.060852 -1.838015 50.298748 -113.569504 499.952881
50 -153.359680 -308.780914 -362.060852 -2.015880 50.326603 -113.866440 499.952881
51 -153.359680 -308.780914 -362.060852 -3.148937 53.692272 -115.232628 499.952881
[planeLockWeightCenter]
49 0.002429 -0.000305 0.076599 -0.011814 -0.004373 -0.000015 0.076638
50 0.000029 -0.000153 0.076548 -0.011814 -0.004373 -0.000015 0.076548
51 0.000019 -0.000000 0.076497 -0.011814 -0.004373 -0.000015 0.076497
[Rear_Toe1_02]
49 379.707825 0.194073 0.000477 -0.000767 -33.624729 0.000838 379.707855
50 379.707825 0.194073 0.000477 -0.000767 -33.624729 0.000838 379.707855
51 379.707825 0.194073 0.000477 -0.000767 -33.624729 0.000838 379.707855
[Rear_Toe1_03]
49 500.129700 0.165701 0.000119 0.007501 71.996246 0.007501 500.129761
50 500.129700 0.165701 0.000119 -0.004135 61.452293 -0.000527 500.129761
51 500.129700 0.165701 0.000119 -0.004806 68.100327 -0.001245 500.129761
[Rear_Toe2_02]
49 340.494507 0.000238 -0.000954 0.001175 -85.104553 0.001175 340.494507
50 340.494507 0.000238 -0.000954 0.001175 -85.485466 0.001175 340.494507
51 340.494507 0.000238 -0.000954 0.000000 -88.806465 0.000000 340.494507
[Rear_Toe2_03]
49 433.103577 0.000000 0.000238 179.984863 81.108101 179.984863 433.103546
50 433.103577 0.000000 0.000238 179.986588 79.960876 179.986588 433.103546
51 433.103577 0.000000 0.000238 -179.994858 70.342094 -179.998413 433.103546
[Rear_Toe3_02]
49 340.494141 -0.000358 -0.000477 0.001175 -84.973083 0.001175 340.494171
50 340.494141 -0.000358 -0.000477 0.001175 -85.357544 0.001175 340.494171
51 340.494141 -0.000358 -0.000477 0.001749 -88.711235 0.001749 340.494171
[Rear_Toe3_03]
49 433.103577 0.001431 -0.000238 -179.994080 81.407852 -179.990585 433.103546
50 433.103577 0.001431 -0.000238 -179.994980 80.277519 -179.991470 433.103546
51 433.103577 0.001431 -0.000238 -179.998352 70.675209 -179.994797 433.103546
[Back_Bone]
49 1312.175781 -701.934692 0.000954 -1.309868 3.152341 -85.176041 1488.125488
50 1312.175781 -701.934692 0.000954 -1.705185 3.121804 -84.850502 1488.125488
51 1312.175781 -701.934692 0.000954 -2.048518 2.815960 -84.352638 1488.125488
[Head]
49 1406.159424 809.709290 0.001431 -0.725040 1.105460 24.490503 1622.625488
50 1406.159424 809.709290 0.001431 -1.112205 1.212124 24.157244 1622.625488
51 1406.159424 809.709290 0.001431 -1.500017 1.316537 23.823236 1622.625488
[Motor_Bone]
49 1158.364380 -417.834747 0.000477 -1.391430 0.000038 -105.983665 1231.419434
50 1158.364380 -417.834747 0.000477 -1.019834 2.826898 -103.158165 1231.419434
51 1158.364380 -417.834747 0.000477 -0.553477 1.344020 -104.639450 1231.419434
[Ping_Mechanism]
49 1178.919312 -413.019653 49.004913 0.000103 -0.000053 82.120995 1250.135010
50 1180.552368 -415.112244 41.805157 0.000103 -0.000053 82.120995 1252.106201
51 1182.568604 -416.311005 37.881626 0.000103 -0.000053 82.120995 1254.280029
[BN_LookIK]
49 193.241119 1380.371704 -0.002861 0.000000 89.965736 -31.038179 1393.832153
50 193.241119 1380.371704 -0.002861 0.000000 89.965736 -31.038179 1393.832153
51 193.241119 1380.371704 -0.002861 0.000000 89.965736 -31.038179 1393.832153
[bottomMouth]
49 -435.092926 615.759399 -0.000954 -0.000022 0.000016 73.527184 753.966492
50 -435.092926 615.759399 -0.000954 -0.000022 0.000016 73.527184 753.966492
51 -435.092926 615.759399 -0.000954 -0.000022 0.000016 73.527184 753.966492
[L_Mouth01]
49 554.440979 7.658243 838.222046 150.204178 23.759130 109.605339 1005.027161
50 554.440979 7.658243 838.222046 150.204178 23.759130 109.605339 1005.027161
51 554.440979 7.658243 838.222046 150.204178 23.759130 109.605339 1005.027161
[L_mouthFront]
49 551.629089 934.514771 339.150421 0.000081 2.804060 79.119301 1136.941284
50 551.629089 934.514771 339.150421 0.000081 2.804060 79.119301 1136.941284
51 551.629089 934.514771 339.150421 0.000081 2.804060 79.119301 1136.941284
[mouthGun]
49 55.332661 1627.420898 0.000000 0.000023 0.000009 -11.038128 1628.361328
50 55.332661 1627.420898 0.000000 0.000023 0.000009 -11.038128 1628.361328
51 55.332661 1627.420898 0.000000 0.000023 0.000009 -11.038128 1628.361328
[R_Mouth01]
49 554.442383 7.659197 -838.223938 29.795891 -23.759109 109.605331 1005.029541
50 554.442383 7.659197 -838.223938 29.795891 -23.759109 109.605331 1005.029541
51 554.442383 7.659197 -838.223938 29.795891 -23.759109 109.605331 1005.029541
[R_mouthFront]
49 551.629089 934.514282 -339.151367 0.000029 -2.803930 79.119133 1136.941162
50 551.629089 934.514282 -339.151367 0.000029 -2.803930 79.119133 1136.941162
51 551.629089 934.514282 -339.151367 0.000029 -2.803930 79.119133 1136.941162
[TopMouth]
49 461.269867 -56.106091 -0.008583 -0.000059 -0.000268 92.025169 464.669525
50 461.269867 -56.106091 -0.008583 -0.000059 -0.000268 92.025169 464.669525
51 461.269867 -56.106091 -0.008583 -0.000059 -0.000268 92.025169 464.669525
[weapon_bone]
49 -987.239868 1448.372803 0.001431 0.000000 89.965736 -31.038221 1752.833740
50 -987.239868 1448.372803 0.001431 0.000000 89.965736 -31.038221 1752.833740
51 -987.239868 1448.372803 0.001431 0.000000 89.965736 -31.038221 1752.833740
